<svg id="Calque_1" data-name="Calque 1" xmlns="http://www.w3.org/2000/svg" viewBox="0 0 24 26"><defs><style>.cls-1{fill:#ece6f5;}.cls-2{fill:#673ab6;}.cls-3{fill:#feb64d;}.cls-4{fill:#434242;}.cls-5{fill:#fd9701;}.cls-6{fill:#341d91;}.cls-7{fill:#804d1c;}</style></defs><title>Account_Icon</title><path class="cls-1" d="M5.84,21a7.7,7.7,0,0,1-3.78-5.62C.93,10.06,3.23,5.8,8.15,3.53,13.68,1,20.91,4.84,22,10.83a10.34,10.34,0,0,1-2.91,9.56c-.27.27-.52.58-1,.57a.68.68,0,0,1-.49-.54,5,5,0,0,0-3-3.28,1.87,1.87,0,0,1-.76-.57,1.45,1.45,0,0,1-.1-1c.37-.91,1.12-1.58,1.53-2.48a3.14,3.14,0,0,0,.42-1.68c.28-2.27-1-3.6-2.8-4.58-1.2-.65-3.24.2-4.06,1.6a5.08,5.08,0,0,0-.67,2.95c-.12,1.21.66,2.06,1.21,3,.23.4.62.7.75,1.17a1.51,1.51,0,0,1-.09,1A3,3,0,0,1,9,17.31a4.66,4.66,0,0,0-2.64,3A.78.78,0,0,1,5.84,21Z"/><path class="cls-2" d="M5.84,21a5.13,5.13,0,0,1,3.05-3.91c.47.26.62.79,1,1.16a2.61,2.61,0,0,0,4.65-.78,1.44,1.44,0,0,1,.31-.54A5.31,5.31,0,0,1,18.15,21a8.62,8.62,0,0,1-7.55,2.19A7.12,7.12,0,0,1,5.84,21Z"/><path class="cls-3" d="M16,11.65c.17,1.32-.75,2.19-1.32,3.2a5.06,5.06,0,0,1-.65.75,2.8,2.8,0,0,1-4,0c-1-.78-1.29-2-2-3a1,1,0,0,1,0-1c.15-.21.62.12.62-.4,0-1,.75-1.24,1.49-1.49L12.31,9a2.11,2.11,0,0,1,3,1.83C15.42,11.32,15.47,11.64,16,11.65Z"/><path class="cls-4" d="M16,11.65l-.78.67c-.26-.49-.09-1-.13-1.4a1.93,1.93,0,0,0-2.49-1.65,16.87,16.87,0,0,1-1.94.63c-1.3.25-2.16.76-1.66,2.29-.59.13-.64-.44-1-.54-.39-2.8,1.18-5.07,3.64-5.29C14.36,6.13,16.41,8.62,16,11.65Z"/><path class="cls-5" d="M10,15.6a4.4,4.4,0,0,0,4,0l.07,1c.42,1-.16,1.53-.84,2a2.16,2.16,0,0,1-2.5,0c-.68-.45-1.26-1-.84-2Z"/><path class="cls-6" d="M9.91,16.63c.19,1.16.73,2,2,2s1.94-.81,2.15-2l.72.28a2.58,2.58,0,0,1-2,2.65A3.08,3.08,0,0,1,9.25,18a4.81,4.81,0,0,1-.36-.94A1.55,1.55,0,0,1,9.91,16.63Z"/><path class="cls-7" d="M11,11.94c-.07.36-.23.54-.52.52A.44.44,0,0,1,10,12a.43.43,0,0,1,.49-.43C10.79,11.54,10.88,11.77,11,11.94Z"/><path class="cls-7" d="M13.56,11.52c.28.06.46.21.44.5a.45.45,0,0,1-.5.44.44.44,0,0,1-.43-.5A.46.46,0,0,1,13.56,11.52Z"/></svg>