<svg id="Calque_1" data-name="Calque 1" xmlns="http://www.w3.org/2000/svg" viewBox="0 0 24 26"><defs><style>.cls-1{fill:#fe9f00;}.cls-2{fill:#4cae50;}.cls-3{fill:#673ab6;}.cls-4{fill:#02bcd3;}.cls-5{fill:#45279f;}.cls-6{fill:#388d3c;}.cls-7{fill:#ee6c00;}.cls-8{fill:#07bdd4;}.cls-9{fill:#f34336;}.cls-10{fill:#4ccfe0;}.cls-11{fill:#4dcfe0;}.cls-12{fill:#9475cc;}.cls-13{fill:#80c683;}.cls-14{fill:#059cac;}.cls-15{fill:#d22f2f;}.cls-16{fill:#049aaa;}.cls-17{fill:#7e57c1;}.cls-18{fill:#fdfefe;}.cls-19{fill:#fe5252;}.cls-20{fill:#0399a9;}.cls-21{fill:#fe897f;}.cls-22{fill:#0abcd2;}</style></defs><title>Archives_Icon</title><path class="cls-1" d="M6.81,15.83H8a1.76,1.76,0,0,1,1.17-.35c.74,0,1.48,0,2.22,0,.41,0,.82,0,1.23,0,.75,0,1.49,0,2.24,0a23.11,23.11,0,0,1,2.76,0,1.06,1.06,0,0,1,.67.32c1.09,0,2.18,0,3.27.05.43,0,1.13-.28,1.25.27a3.67,3.67,0,0,1-.07,2.35c-.37.62-1.4.11-2.12.25a1.35,1.35,0,0,1-1.77,0H5.12a1.35,1.35,0,0,1-1.77,0,5.46,5.46,0,0,1-.7,0c-.5-.07-1.28.27-1.43-.2a6.94,6.94,0,0,1-.09-2.37c0-.36.43-.27.69-.28.52,0,1,0,1.56-.06a1.84,1.84,0,0,1,1.2-.34A3.44,3.44,0,0,1,6.81,15.83Z"/><path class="cls-2" d="M11.35,5.59l.09.56a2.53,2.53,0,0,1,.35,1.7c0,.42,0,.84,0,1.26-.06,1.29.27,2.61-.29,3.86a2.18,2.18,0,0,1-2.3.24.85.85,0,0,1-.35-.4A19.32,19.32,0,0,1,9,5.58,1.8,1.8,0,0,1,11.35,5.59Z"/><path class="cls-3" d="M6.77,5.59V13a1.79,1.79,0,0,1-2.33,0,16.18,16.18,0,0,1,0-7.39A1.79,1.79,0,0,1,6.77,5.59Z"/><path class="cls-4" d="M16,6.42c.43-.17.86-.33,1.27-.52.85-.39,1.29-.13,1.34.8.4,1.14-1,.72-1.19,1.38.55.34,1.17-.45,1.69.09l1.18,4a2.69,2.69,0,0,1-2.19.71c-.84-.44-.78-1.35-1-2.08s-.56-1.29-1.42-1.31A1.34,1.34,0,0,1,15,8.05,2,2,0,0,0,16,6.42Z"/><path class="cls-5" d="M4.51,5.59V13l-.14.15a.75.75,0,0,1-1-.16V5.59a.75.75,0,0,1,1-.15Z"/><path class="cls-6" d="M9.11,5.57l0,7.43A.72.72,0,0,1,8,13V5.58a.79.79,0,0,1,1-.16Z"/><path class="cls-7" d="M18.81,18.76h1.77c0,1.23,0,2.46,0,3.69,0,.67-.18.9-.87.9s-.9-.23-.88-.9C18.86,21.22,18.82,20,18.81,18.76Z"/><path class="cls-7" d="M3.35,18.76H5.12c0,1.23,0,2.46,0,3.69,0,.67-.18.9-.88.9s-.89-.23-.87-.9C3.4,21.22,3.36,20,3.35,18.76Z"/><path class="cls-8" d="M20.58,13.29c.57,1.56,1.22,1.28-1.75,2.2a1.44,1.44,0,0,1-.54-1.77A1.77,1.77,0,0,1,20.58,13.29Z"/><path class="cls-3" d="M4.51,2.76c.24,0,.48,0,.71,0,1.43-.26,1.85.39,1.55,1.7a1.88,1.88,0,0,1-2.26.08A1.29,1.29,0,0,1,4.51,2.76Z"/><path class="cls-2" d="M9.1,2.76c.23,0,.47,0,.7,0,1.44-.26,1.85.39,1.55,1.7a1.86,1.86,0,0,1-2.25.08A1.27,1.27,0,0,1,9.1,2.76Z"/><path class="cls-9" d="M12.53,6.19c.78.17,1.74-.59,2.34.46a.85.85,0,0,1,.24.66,1.29,1.29,0,0,1-.27.65,2.65,2.65,0,0,1-2.1.14.92.92,0,0,1-.37-.31A1.44,1.44,0,0,1,12.53,6.19Z"/><path class="cls-3" d="M6.81,15.83H4.52a1.27,1.27,0,0,1,0-1.72,1.86,1.86,0,0,1,2.26.07Z"/><path class="cls-10" d="M20.58,13.29a5.48,5.48,0,0,0-2.31.58l-.16-.11a.9.9,0,0,1-.25-.88l.12-.14c.78-.12,1.45-.62,2.27-.58C20.68,12.45,20.55,12.89,20.58,13.29Z"/><path class="cls-11" d="M19.07,8.17c-.53.17-1.06.35-1.59.49a.6.6,0,0,1-.81-.35c-.15-.41.19-.54.46-.74.44-.36,1.3,0,1.44-.87A2.88,2.88,0,0,1,19.07,8.17Z"/><path class="cls-12" d="M4.51,4.42H6.77V5.59H4.51l0,0a.82.82,0,0,1-.16-1A1.07,1.07,0,0,1,4.51,4.42Z"/><path class="cls-13" d="M9.11,4.43l2.24,0V5.59l-2.24,0h0a.79.79,0,0,1-.15-1Z"/><path class="cls-12" d="M6.77,14.18H4.51L4.37,14a.82.82,0,0,1,.16-1l0,0H6.77Z"/><path class="cls-14" d="M18.27,13.87l.56,1.62-.58.35h-.62a1.08,1.08,0,0,1-.51-1.18c.16-.59.46-1,1.15-.79Z"/><path class="cls-6" d="M9.1,2.76c0,.56,0,1.12,0,1.67h0A.79.79,0,0,1,8,4.42C8.09,3.68,7.36,2.42,9.1,2.76Z"/><path class="cls-15" d="M12.53,6.19V7.82a.72.72,0,0,1-1.09,0V6.15Z"/><path class="cls-5" d="M4.51,14.18v1.65H3.38l0-1.65a.79.79,0,0,1,1.11,0Z"/><path class="cls-5" d="M4.51,2.76V4.42l0,0a.78.78,0,0,1-1.11,0C3.5,3.67,2.8,2.42,4.51,2.76Z"/><path class="cls-6" d="M9.1,15.83H8l0-1.67a.83.83,0,0,1,1.17,0A1.29,1.29,0,0,1,9.1,15.83Z"/><path class="cls-16" d="M14.87,7.35v-.7L16,6.42c.35.82.7,1.64-.79,1.47C14.88,7.82,15.05,7.48,14.87,7.35Z"/><path class="cls-17" d="M3.42,4.41l1.11,0V5.57l-1.11,0Z"/><path class="cls-2" d="M8,4.42H9.11V5.57H8Z"/><path class="cls-2" d="M9.08,14.19,8,14.17V13H9.08l.05,0a.86.86,0,0,1,.11,1Z"/><path class="cls-17" d="M4.53,14.16l-1.11,0V13l1.11,0Z"/><path class="cls-18" d="M14.87,7.35l.3.54a3.23,3.23,0,0,0,.5,1.41c.85,1,1,2.39,1.44,3.59.24.6.07,1.26.26,1.87l.26,1.08H14.84a2.21,2.21,0,0,1-.41-1.67c0-.42,0-.84,0-1.27,0-1.28,0-2.56,0-3.84a1.82,1.82,0,0,1,.36-1.23Z"/><path class="cls-2" d="M9.1,15.83c0-.54,0-1.09,0-1.64l.05,0a2,2,0,0,1,2.27,0,1.28,1.28,0,0,1,0,1.74Z"/><path class="cls-9" d="M14.79,14.19c0,.55,0,1.1.05,1.66H12.53a1.3,1.3,0,0,1,0-1.73A1.85,1.85,0,0,1,14.79,14.19Z"/><path class="cls-15" d="M12.54,14.17c0,.56,0,1.12,0,1.67H11.39c0-.55,0-1.11,0-1.66l.12-.15a1,1,0,0,1,.93,0Z"/><path class="cls-15" d="M11.35,13l.09-4a.89.89,0,0,1,1.07-.12.82.82,0,0,1,.27.36,10.67,10.67,0,0,1,0,3.43.93.93,0,0,1-.22.4,1,1,0,0,1-1.09.09C11.46,13.11,11.4,13.06,11.35,13Z"/><path class="cls-13" d="M11.35,14.18l-2.22,0c0-.37,0-.73,0-1.1l2.22,0h.09a.9.9,0,0,1,0,1.14Z"/><path class="cls-19" d="M12.55,9H11.44V7.87l1.09,0,0,.08A.78.78,0,0,1,12.55,9Z"/><path class="cls-20" d="M16.85,13A16.78,16.78,0,0,1,15.67,9.3c.81-.34,1.28-.14,1.48.78s.55,1.77.83,2.66h0C17.66,13,17.34,13.39,16.85,13Z"/><path class="cls-21" d="M12.55,9V7.9l2.24-.06V9a1.8,1.8,0,0,1-2.26,0Z"/><path class="cls-22" d="M16.85,13,18,12.74c.09.37.19.75.28,1.13-.37.22-.87.32-.9.89A3,3,0,0,1,16.85,13Z"/><path class="cls-9" d="M12.53,9l2.26,0v4a1.71,1.71,0,0,1-2.25,0Z"/><path class="cls-21" d="M12.54,13l2.25,0v1.19l-2.25,0v0a.77.77,0,0,1,0-1.12Z"/><path class="cls-19" d="M12.55,13v1.12H11.44V13Z"/></svg>