<svg id="Layer_1" data-name="Layer 1" xmlns="http://www.w3.org/2000/svg" viewBox="0 0 35.12 26.35"><defs><style>.cls-1{fill:#03a8f3;}.cls-2{fill:#e1f1fc;}.cls-3{fill:#e0f0fc;}.cls-4{fill:#e2f1fc;}</style></defs><title>card_icon</title><path class="cls-1" d="M18.17,2.23c4.12,0,8.24,0,12.36,0,2.59,0,3.68,1.11,3.68,3.72q0,7.69,0,15.4c0,2.61-1.09,3.72-3.68,3.72q-12.36,0-24.71,0c-2.47,0-3.58-1.14-3.59-3.62q0-7.8,0-15.59c0-2.5,1.11-3.61,3.58-3.63C9.93,2.21,14.05,2.23,18.17,2.23Z"/><path class="cls-2" d="M11.4,19.75c-1.39,0-2.78,0-4.17,0-.4,0-1,.2-1.13-.37a1.65,1.65,0,0,1,.3-1.59c1.95-2.37,7.83-2.4,9.89,0a1.64,1.64,0,0,1,.35,1.58c-.17.71-.82.4-1.27.41C14.05,19.77,12.72,19.75,11.4,19.75Z"/><path class="cls-3" d="M11.34,14.41a3,3,0,1,1,3.07-3A3.08,3.08,0,0,1,11.34,14.41Z"/><path class="cls-4" d="M24.52,10.6H20.15c-.54,0-1.18.15-1.16-.79,0-.78.53-.72,1-.73h9.31c.49,0,1-.1,1.07.69s-.55.82-1.13.82Z"/><path class="cls-4" d="M24.53,14.41H20c-.54,0-1,0-1-.78s.52-.74,1-.74h9.31c.49,0,1-.12,1.08.68s-.53.83-1.12.83Z"/><path class="cls-4" d="M21.93,18.22H19.84c-.5,0-.84-.1-.85-.72s.22-.8.77-.8c1.52,0,3,0,4.55,0,.57,0,.77.26.76.82s-.38.7-.87.7Z"/></svg>