<svg id="Calque_1" data-name="Calque 1" xmlns="http://www.w3.org/2000/svg" viewBox="0 0 16.2 17.27"><defs><style>.cls-1{fill:#d6d0d0;}.cls-2{fill:#d5cfcf;}.cls-3{fill:#fefefe;}</style></defs><title>changeToList_Icon</title><path class="cls-1" d="M.12,2.64C-.32.5.73,0,2.72,0S5.25.68,5.28,2.6c0,2.08-.69,2.69-2.71,2.67S-.27,4.66.12,2.64Z"/><path class="cls-1" d="M5.17,8.68c.39,2-.53,2.56-2.46,2.59S0,10.66,0,8.6.86,6,2.79,6,5.52,6.78,5.17,8.68Z"/><path class="cls-1" d="M5.17,14.66c.38,2-.49,2.59-2.44,2.61S0,16.71,0,14.62.81,12,2.77,12,5.53,12.74,5.17,14.66Z"/><path class="cls-2" d="M11.43,1.8c1.28,0,2.56,0,3.83,0,.54,0,1,.29.93.92a.85.85,0,0,1-.92.71c-2.56,0-5.12,0-7.67,0-.53,0-1-.3-.93-.92a.88.88,0,0,1,.93-.72C8.88,1.79,10.15,1.8,11.43,1.8Z"/><path class="cls-2" d="M11.5,9.49c-1.21,0-2.42,0-3.62,0-.59,0-1.22-.13-1.2-.89,0-.6.54-.79,1.07-.79,2.48,0,5,0,7.45,0,.53,0,1,.24,1,.87s-.55.78-1.07.79c-1.21,0-2.42,0-3.62,0Z"/><path class="cls-2" d="M11.51,15.49c-1.21,0-2.42,0-3.62,0-.59,0-1.22-.13-1.21-.89,0-.6.54-.79,1.07-.79,2.48,0,5,0,7.45,0,.53,0,1,.23,1,.86s-.54.79-1.07.8c-1.21,0-2.42,0-3.62,0Z"/><path class="cls-3" d="M3.46,2.68a.7.7,0,0,1-.81.77c-.66,0-.87-.39-.81-1s.44-.69.91-.66S3.48,2.19,3.46,2.68Z"/><path class="cls-3" d="M2.88,9.45c-.66,0-1-.14-1-.68s.2-1,.85-.94a.72.72,0,0,1,.78.8C3.46,9.12,3.26,9.45,2.88,9.45Z"/><path class="cls-3" d="M1.83,14.65c0-.5.22-.8.75-.82s.91.31.87.92-.37.72-.86.71S1.83,15.16,1.83,14.65Z"/></svg>