<svg id="Calque_1" data-name="Calque 1" xmlns="http://www.w3.org/2000/svg" viewBox="0 0 24 23"><defs><style>.cls-1{fill:#247a15;}.cls-2{fill:#ea9600;}</style></defs><title>Dashboard_Icon</title><path class="cls-1" d="M7.92,9.84a1.53,1.53,0,0,1-1.13-.39,2.84,2.84,0,0,0-2.87-.71A1.44,1.44,0,0,1,2.2,7.88,1.4,1.4,0,0,1,2.54,6.1a1.36,1.36,0,0,1,1.91-.16c2.41,2,4.38.7,6-1.81C11.18,3,12.08,2.61,13,3.47,14.5,4.82,18,4.12,19,2.86c.58-.74,1.21-1.14,2.12-.68a1.4,1.4,0,0,1,.83,1.62,1.65,1.65,0,0,1-1.82,1.33,3.39,3.39,0,0,0-2.57,1.32c-.65.81-1.43,1.09-2.26.43-2.49-2-4.44-.37-5.88,1.7C8.93,9.23,8.58,9.8,7.92,9.84Z"/><path class="cls-2" d="M22,14.63c0,1.75-.05,3.49,0,5.24,0,.84-.26,1-1,1-2.12,0-2.12,0-2.12-2.12,0-3.14,0-6.29,0-9.43,0-.89.28-1.17,1.11-1.06a2.55,2.55,0,0,0,.78,0c1-.15,1.37.2,1.31,1.26C21.88,11.22,22,12.93,22,14.63Z"/><path class="cls-2" d="M13.56,15.62c0,1.44,0,2.88,0,4.32,0,.63-.09.91-.83.93-2.32.07-2.32.11-2.32-2.19s0-4.8,0-7.2c0-.79.11-1.16,1-1.14,2.12,0,2.12,0,2.12,2.13Z"/><path class="cls-2" d="M17.76,16.62c0,.74,0,1.49,0,2.23s.32,1.62-.18,1.84a6.77,6.77,0,0,1-2.56.14c-.46,0-.39-.37-.4-.66,0-2.32,0-4.63,0-7,0-.54.14-.73.73-.77,2.43-.17,2.43-.19,2.43,2.21Z"/><path class="cls-2" d="M5.17,17.31v1.44c0,2.15-.51,2.54-2.65,2.12C2,20.77,2,20.48,2,20.13c0-2,0-3.93,0-5.89,0-.59.22-.71.76-.74,2.39-.14,2.39-.16,2.39,2.24Z"/><path class="cls-2" d="M9.37,18.22v.91c0,1.73,0,1.66-1.72,1.75-1.1.05-1.64-.17-1.45-1.39a13.37,13.37,0,0,0,0-2.1c0-1.78,0-1.78,1.79-1.78C9.37,15.61,9.37,15.61,9.37,18.22Z"/></svg>