<svg id="Calque_1" data-name="Calque 1" xmlns="http://www.w3.org/2000/svg" viewBox="0 0 119.75 119.75"><defs><style>.cls-1{fill:#fff;}.cls-2{fill:#e8e8e8;}.cls-3{fill:#bf6d15;}.cls-4{fill:#513731;}.cls-5{fill:#9e5212;}.cls-6{fill:#f7f7f7;}.cls-7{fill:#01003a;}.cls-8{fill:#03022d;}.cls-9{fill:#43b3ff;}.cls-10{fill:#02013a;}</style></defs><title>defaultUploadAvatar</title><g id="RightSide"><path class="cls-1" d="M26.09,105.15C-1.59,83.69-5,46.49,18.23,20.65c21.15-23.48,62.23-23.52,83.49-.1,23,25.36,19.51,63.49-7.77,84.59C87.29,99,85.06,89,76.14,84.88a22.86,22.86,0,0,1-6-5.3,9.85,9.85,0,0,1-.94-5.89c1.91-7.6,9.85-12.36,9.78-20.89,0-.94.12-1.89,0-2.82C77.74,37.15,68.68,26.84,58.79,26.92c-10.7.08-17.2,9.51-17.73,25.79C40.94,61.22,48.8,66,50.81,73.52A9.81,9.81,0,0,1,50,79.41c-1.52,2.3-3.77,3.78-5.94,5.35C35,88.85,32.76,99,26.09,105.15Z"/><path class="cls-2" d="M77.06,82.5C87.58,86.4,92.36,94.58,94,105.14q-33.93,23.19-67.86,0C27.73,94.62,32.35,86.3,43,82.46,59.35,96.07,60.64,96.07,77.06,82.5Z"/><path class="cls-3" d="M82.08,54c-.87,8.22-5.81,14.2-11,20.07Q60,87.3,48.94,74.07c-5.22-5.83-10.1-11.85-11-20,4.26-13.38,15.83-16.61,27.43-18.39C79,33.55,78.16,46.32,82.08,54Z"/><path class="cls-4" d="M82.08,54c-1.32.13-3.71.59-3.78.34-2-6.38-2.3-15-17.49-14.73-9.89.17-16.32-.43-19.07,14.75A37.38,37.38,0,0,1,38,54c0-4.69-.78-9.59.32-14C41,29,52.7,21.22,62.83,22.85,75.6,24.9,83.1,37,82.08,54Z"/><path class="cls-5" d="M48.94,74.07a22.68,22.68,0,0,0,22.16,0c.25,1.85.49,3.71.74,5.57,2.54,10.68-4.84,13.69-12.5,13.4C52.4,92.8,45.55,89.37,48.2,79.64Z"/><path class="cls-6" d="M48.2,79.64C49.8,85.85,52.81,90.81,60,90.81s10.22-5,11.82-11.17l5.22,2.86C75.39,92.07,68.37,96.29,60,96.28S44.62,92,43,82.46Z"/><path class="cls-7" d="M73.29,104.92a5.08,5.08,0,0,1-.66.33,2.06,2.06,0,0,1-1.23.06,1.42,1.42,0,0,1-1-1.13,2,2,0,0,1,.12-1,3.05,3.05,0,0,1,1-1.25.14.14,0,0,1,.12,0c.13,0,.25.06.37.09s.12,0,.12.1-.21.32-.28.5a4.74,4.74,0,0,0-.16.65c0,.07,0,.11.11.09a1.41,1.41,0,0,0,1-.63,1,1,0,0,0,.07-.76,1.05,1.05,0,0,1,.61-.35.81.81,0,0,1,.12,1.33,2.41,2.41,0,0,1-.92.53l-.24.09a.77.77,0,0,1-.5.13c-.28,0-.28,0-.2.29a1.1,1.1,0,0,0,1.52.62,4.45,4.45,0,0,0,.94-.57,0,0,0,0,1,.07,0,.22.22,0,0,1,0,.29,7.94,7.94,0,0,1-.85.65h0Z"/><path class="cls-8" d="M70.16,101.54c0,.39-.09.77-.13,1.16,0,.19,0,.19-.23.15a.44.44,0,0,1,0-.23c0-.33.07-.66.11-1C70,101.45,70,101.43,70.16,101.54Z"/><path class="cls-9" d="M69.82,103.39c-.24,0-.24,0-.16-.24a.61.61,0,0,0,.07-.17c0-.08.07-.1.17-.09s.13,0,.13.14a.59.59,0,0,0,0,.23c0,.13,0,.18-.15.14Z"/><path class="cls-9" d="M80.61,101.16a25.54,25.54,0,0,0,2.59-.74c.08,0,.12,0,.14.07s.13.38.2.57,0,.12-.08.15l-.56.18c-.19.06-.19.06-.13.24.24.73.48,1.47.74,2.2,0,.13,0,.18-.14.22l-.68.2c-.21.06-.21.06-.26-.12-.23-.74-.45-1.49-.66-2.24,0-.12-.08-.15-.22-.11l-.74.19,0,0a3,3,0,0,1-.18-.71A.14.14,0,0,1,80.61,101.16Z"/><path class="cls-10" d="M80.61,101.16c.07.27.13.54.2.81h0a6.35,6.35,0,0,1-1.07.22l-.15-.71c0-.07,0-.1.07-.12C80,101.31,80.3,101.24,80.61,101.16Z"/><path class="cls-9" d="M80.81,102h-.06l-.13,0-.69.15-.06,0-.13,0,.06.28c.16.74.32,1.48.49,2.21,0,.08,0,.16.16.11h0l.85-.19h0c.16,0,.18-.07.15-.2C81.22,103.59,81,102.78,80.81,102Z"/><path class="cls-9" d="M79.11,101.5c-.4.08-.8.14-1.2.19a.14.14,0,0,0-.13.1l-.23.59c-.18.46-.37.91-.57,1.37,0,0,0,.07-.07.07s0,0-.07-.06l-.26-.34c-.33-.46-.65-.93-1-1.4a.19.19,0,0,0-.2-.1l-1,0h-.13c-.19,0-.19,0-.19.17,0,.56,0,1.11,0,1.67,0,.07,0,1.19,0,1.48,0,.13.05.19.21.15h0l.82,0c.13,0,.16,0,.15-.14,0-.61-.09-1.23-.13-1.85,0-.08.06,0,.06,0l.3.45c.31.46.63.91,1,1.36a.14.14,0,0,0,.16.07l.74-.07a.14.14,0,0,0,.13-.08c.18-.47.37-.93.54-1.4l.26-.71a.1.1,0,0,1,0,.08c.11.6.21,1.2.32,1.8,0,.1,0,.15.19.12l.81-.14c.13,0,.16-.07.14-.17-.23-1-.45-2.1-.65-3.15C79.24,101.51,79.2,101.48,79.11,101.5Z"/><path class="cls-9" d="M72.32,102.14c-.79-.16-1.58-.34-2.36-.56a.1.1,0,0,1,0-.2c.63-.27,1.25-.55,1.84-.86a.85.85,0,0,1,.42-.08c.88,0,1.76.07,2.63,0a.07.07,0,0,1,0,.13,26.25,26.25,0,0,1-2.28,1.48A.37.37,0,0,1,72.32,102.14Z"/></g></svg>