<svg id="Calque_1" data-name="Calque 1" xmlns="http://www.w3.org/2000/svg" viewBox="0 0 59 54"><defs><style>.cls-1{fill:#4fc2f6;}.cls-2{fill:#feb64d;}.cls-3{fill:#424242;}.cls-4{fill:#fd9701;}.cls-5{fill:#05599b;}.cls-6{fill:#fda92e;}.cls-7{fill:#feaa2e;}.cls-8{fill:#814f1d;}</style></defs><title>Default_Avatar</title><path class="cls-1" d="M38.66,37.14c6.37,2.31,10.46,6.6,11.76,13.39.37,2,.18,3-2.31,3q-18.61-.16-37.21,0c-2.5,0-2.69-1-2.32-3,1.3-6.79,5.38-11.08,11.75-13.4a6.73,6.73,0,0,1,1.64,2c3.64,5.62,10.85,5.73,14.8.23A8.51,8.51,0,0,1,38.66,37.14Z"/><path class="cls-2" d="M23,31.69a12.54,12.54,0,0,1-5.33-8.55,2.76,2.76,0,0,1-.45-3,4.45,4.45,0,0,0,.9-2.76c-.36-3.32,1.58-4.68,4.42-5.5s5.4-1.8,8.11-2.69a7.92,7.92,0,0,1,10.24,6.89c.13,1.41,0,2.86,1,4.07a2.78,2.78,0,0,1-.45,3c-.72,3.51-2.25,6.51-5.34,8.55A8.82,8.82,0,0,1,23,31.69Z"/><path class="cls-3" d="M41.29,19.62c-1.64.79-1.34-.59-1.2-1.26.74-3.64-1.29-5.86-3.67-8.15a3.36,3.36,0,0,0-4-.82c-3.49,1.27-7,2.58-10.56,3.53-2.36.63-3.11,1.8-3,4.14,0,.75,1.33,2.73-1.16,2.58a1.29,1.29,0,0,1-1.39-1.29c.06-2.51-.12-5,.56-7.5C18.8,3.7,25.07-.46,32.32.69a2.3,2.3,0,0,1,1.41.62C37.24,4.83,43,6.64,42.65,13.08c-.09,1.75,0,3.51,0,5.26A1.26,1.26,0,0,1,41.29,19.62Z"/><path class="cls-4" d="M23,31.69a11.74,11.74,0,0,0,13.08,0l.13,4.62a6.36,6.36,0,0,1-6.67,6,6.36,6.36,0,0,1-6.67-6Z"/><path class="cls-5" d="M22.83,36.31c1.24,3,3.11,5.25,6.67,5.25s5.42-2.26,6.67-5.25l2.49.83c-1.74,4.89-4.72,7.14-9.35,7.08s-7.24-2.15-9-7.09Z"/><path class="cls-6" d="M16.31,18.35l1.39,1.29c0,1.17-.05,2.34-.07,3.5C14.5,21.72,14.28,20.91,16.31,18.35Z"/><path class="cls-7" d="M41.29,19.62l1.39-1.28c2,2.55,1.82,3.36-1.3,4.8Z"/><path class="cls-8" d="M25.49,20.36c-.22,1-.67,1.43-1.43,1.3a1.19,1.19,0,0,1,.18-2.37C25.06,19.31,25.27,19.93,25.49,20.36Z"/><path class="cls-8" d="M36,20.35a1.21,1.21,0,0,1-1.14,1.32,1.2,1.2,0,0,1-.3-2.37C35.29,19.13,35.77,19.6,36,20.35Z"/></svg>