<svg id="Layer_1" data-name="Layer 1" xmlns="http://www.w3.org/2000/svg" viewBox="0 0 28.77 31.43"><defs><style>.cls-1{fill:#43b3ff;}.cls-2{fill:#01003a;}</style></defs><title>done_icon</title><path class="cls-1" d="M15,24.09A9.11,9.11,0,1,1,24.11,15,9.14,9.14,0,0,1,15,24.09Z"/><path class="cls-2" d="M11,14.43c.38.09.57.4.81.63,1.84,1.81,1.84,1.81,3.65,0,1.29-1.29,2.61-2.55,3.85-3.88.53-.55.8-.28,1.17.12s.75.6.17,1.16q-3.27,3.18-6.44,6.44c-.49.5-.77.39-1.19-.05-.86-.91-1.77-1.77-2.64-2.67-.2-.19-.63-.37-.41-.7A7.78,7.78,0,0,1,11,14.43Z"/></svg>