<svg id="Layer_1" data-name="Layer 1" xmlns="http://www.w3.org/2000/svg" viewBox="0 0 26.36 26.68"><defs><style>.cls-1{opacity:0.5;}.cls-2{fill:#01003a;}</style></defs><title>email_icon</title><g class="cls-1"><path class="cls-2" d="M11.37,3.87h6.28l1.42.67a8.69,8.69,0,0,1,4.52,11.35c-1.35,3.4-4.55,4.6-7.51,2.74-.62-.39-.85-.16-1.31.14-2.61,1.72-5.25.59-5.89-2.49a7.8,7.8,0,0,1,.58-5,4.52,4.52,0,0,1,5.26-2.79,6.68,6.68,0,0,0,1.73,0c2.2-.23,2.64.19,2.33,2.34a30.65,30.65,0,0,0-.24,4.69c0,.46,0,1,.56,1.15s.93-.29,1.22-.74c2.32-3.58-.18-9-4.41-9.6a7.93,7.93,0,0,0-9.07,8.35c.22,4.13,2.79,6.63,6.92,6.71A12.73,12.73,0,0,0,17.64,21c.58-.17,1.35-.51,1.57.5a1.5,1.5,0,0,1-.68,1.86,4.42,4.42,0,0,1-1.11.38c-5.55,1.12-11.33-.05-13.5-6.57V11.33A11.91,11.91,0,0,1,11.37,3.87Zm.53,10.52c0,1.14.07,2.27,1.24,2.48s1.75-.86,2-1.89.73-2.41-.23-3.5a1.13,1.13,0,0,0-1.42-.26C12.2,11.92,12.06,13.24,11.9,14.39Z"/></g></svg>