<svg id="Layer_1" data-name="Layer 1" xmlns="http://www.w3.org/2000/svg" viewBox="0 0 10.84 10.85"><defs><style>.cls-1{fill:#f34336;}.cls-2{fill:#fefefe;}</style></defs><title>errorIcon</title><path class="cls-1" d="M0,5.4A5.47,5.47,0,0,1,5.43,0a5.47,5.47,0,0,1,5.41,5.49,5.48,5.48,0,0,1-5.47,5.37A5.47,5.47,0,0,1,0,5.4Z"/><path class="cls-2" d="M4.06,3.12a4.4,4.4,0,0,0,.42.59c.93,1,.94,1,1.93-.06.32-.33.57-.65,1-.09.24.3.21.44,0,.67s-1,.75-1,1.17.64.8,1,1.17.29.48,0,.77-.46.36-.76,0-.72-1.07-1.17-1-.81.65-1.17,1-.45.31-.72,0S3.05,7,3.44,6.6s1.1-.73,1.07-1.21-.69-.78-1.06-1.18c-.11-.12-.39-.23-.18-.46A1.84,1.84,0,0,1,4.06,3.12Z"/></svg>