<svg id="Layer_1" data-name="Layer 1" xmlns="http://www.w3.org/2000/svg" viewBox="0 0 28.77 31.43"><defs><style>.cls-1{fill:#f34336;}.cls-2{fill:#fefdfd;}</style></defs><title>error_icon</title><path class="cls-1" d="M5.48,15.69a8.91,8.91,0,1,1,8.92,8.93A8.91,8.91,0,0,1,5.48,15.69Z"/><path class="cls-2" d="M18.26,18.39l-1.14.88c-.38.29-.5-.12-.69-.28-.74-.6-1.27-1.85-2.11-1.78s-1.38,1.14-2,1.83-.78.1-1.1-.2-.74-.57-.16-1.11,1.88-1.25,1.81-2.09-1.13-1.37-1.82-2-.12-.78.18-1.11.59-.71,1.13-.15,1.25,1.88,2.08,1.8,1.38-1.14,2-1.82.79-.09,1.12.2.7.61.13,1.12S16,15,15.9,15.69,17,17,17.64,17.7Z"/></svg>