<svg id="Calque_1" data-name="Calque 1" xmlns="http://www.w3.org/2000/svg" viewBox="0 0 24 24"><defs><style>.cls-1{fill:#01003a;}.cls-2{fill:#fcfcfd;}</style></defs><title>ExpandSUbMenu_Icon</title><g id="float_Menu"><path class="cls-1" d="M12,21.57a9.57,9.57,0,1,1,9.53-9.64A9.54,9.54,0,0,1,12,21.57Z"/><path class="cls-2" d="M13.21,16.6a4.52,4.52,0,0,1-.51-.39c-1.22-1.21-2.41-2.43-3.64-3.62-.48-.46-.41-.79,0-1.21C10.3,10.21,11.47,9,12.66,7.84c.24-.24.52-.63.86-.24s-.09.62-.32.86l-2.44,2.45c-1.1,1.1-1.1,1.1,0,2.23l2.6,2.59a.52.52,0,0,1,.17.65C13.51,16.48,13.35,16.52,13.21,16.6Z"/></g></svg>