<svg id="Layer_1" data-name="Layer 1" xmlns="http://www.w3.org/2000/svg" viewBox="0 0 19 12.64"><defs><style>.cls-1{fill:#ba9b49;}.cls-2{fill:#fefefe;}.cls-3{fill:#4f7bb5;}.cls-4{fill:#8ab6ef;}.cls-5{fill:#36404e;}.cls-6{fill:#fbfcfd;}</style></defs><title>hideEye</title><path class="cls-1" d="M19,6.45a35.91,35.91,0,0,1-3.16,3.37C11.2,13.7,7.17,13.58,2.73,9.45c-1-.93-1.81-2-2.73-3V6.26A19.85,19.85,0,0,1,5.09,1.38a7.72,7.72,0,0,1,8.81,0A20.06,20.06,0,0,1,19,6.26Z"/><path class="cls-2" d="M9.39,12A8.83,8.83,0,0,1,3.83,9.55,16.52,16.52,0,0,1,1.14,6.76C1,6.54.73,6.36,1,6,3.07,3.56,5.27,1.28,8.66.7a6.79,6.79,0,0,1,4.53,1,16.5,16.5,0,0,1,4.64,4.13c.18.23.46.43.15.81-1.93,2.3-4,4.39-7,5.19A7.78,7.78,0,0,1,9.39,12Z"/><path class="cls-3" d="M5.1,6.31a4.4,4.4,0,1,1,8.8,0,4.4,4.4,0,1,1-8.8,0Z"/><path class="cls-4" d="M9.54,10.07A3.75,3.75,0,0,1,5.7,6.36,4,4,0,0,1,9.46,2.48,4,4,0,0,1,13.3,6.29,3.72,3.72,0,0,1,9.54,10.07Z"/><path class="cls-5" d="M11.19,5.35c.51,1.74-.37,3-2,2.82A1.89,1.89,0,0,1,7.62,6,1.8,1.8,0,0,1,9.84,4.54C10.24,4.89,10.79,5,11.19,5.35Z"/><path class="cls-6" d="M11.19,5.35c-.62,0-1.21,0-1.35-.81A.93.93,0,0,1,11.58,4C12,4.58,11.48,4.93,11.19,5.35Z"/></svg>