<svg id="Calque_1" data-name="Calque 1" xmlns="http://www.w3.org/2000/svg" viewBox="0 0 24 23"><defs><style>.cls-1{fill:#43b3ff;}</style></defs><title>Home_Icon</title><path class="cls-1" d="M20.82,9.05A1.49,1.49,0,0,0,20,7.52c-2.38-1.38-4.73-2.8-7.07-4.24a1.43,1.43,0,0,0-1.75,0C8.79,4.72,6.39,6.14,4,7.55a1.34,1.34,0,0,0-.8,1.31c0,2.84,0,5.67,0,8.51A2.43,2.43,0,0,0,5.93,20c2,0,4,0,6,0s4,0,6,0,2.9-.89,2.91-2.85C20.81,14.48,20.78,11.76,20.82,9.05ZM7.43,10h9.14c.33,0,.78-.15.8.44s-.5.5-.86.5c-1.5,0-3,0-4.51,0s-3,0-4.51,0c-.35,0-.88.19-.86-.5S7.1,10,7.43,10Zm9.94,3.37c0,.68-.57.44-.92.45-1.54,0-3.08,0-4.63,0s-2.84,0-4.26,0c-.35,0-.88.23-.92-.43s.48-.51.84-.51h9C16.86,12.85,17.4,12.66,17.37,13.34Zm-.68,3.34H7.3c-.32,0-.66,0-.67-.45s.39-.51.74-.51h9.27c.36,0,.76-.06.73.51S17,16.68,16.69,16.68Z"/></svg>