<svg id="Layer_1" data-name="Layer 1" xmlns="http://www.w3.org/2000/svg" viewBox="0 0 10.15 10.15"><defs><style>.cls-1{fill:#15a500;}</style></defs><title>loadingIcon</title><path class="cls-1" d="M6.64,1.64C4.66,1,3.06,1.44,2,2.86a3.57,3.57,0,0,0-.73,2.08c0,.66-.55.37-.88.42S0,5.17,0,4.86A5.06,5.06,0,0,1,7.27.59C7.28,1.07,6.85,1.28,6.64,1.64Z"/><path class="cls-1" d="M6.64,1.64c0-.51.47-.67.63-1a4.94,4.94,0,0,1,2.87,4.3c0,.33-.08.52-.44.47s-.81.22-.85-.44A3.74,3.74,0,0,0,6.64,1.64Z"/><path class="cls-1" d="M2.47,8a1.54,1.54,0,0,1-.81.76c-.18,0-.25-.11-.24-.27s.61-.81.79-.78A.3.3,0,0,1,2.47,8Z"/><path class="cls-1" d="M4.81,9.57c.06-.25-.1-.62.26-.61s.23.39.24.62.12.58-.23.57S4.9,9.75,4.81,9.57Z"/><path class="cls-1" d="M1.79,7.11c0,.25-.19.32-.35.39s-.37.34-.64.23a.26.26,0,0,1-.12-.19c0-.33.34-.35.54-.49s.31-.2.49-.07S1.77,7.08,1.79,7.11Z"/><path class="cls-1" d="M7.71,9.32a.2.2,0,0,1-.26.18C7.07,9.35,7,9,6.89,8.64c0-.13.07-.22.22-.22A1.49,1.49,0,0,1,7.71,9.32Z"/><path class="cls-1" d="M6.54,9.61c0,.21,0,.43-.24.36-.39-.11-.31-.51-.39-.8s0-.4.2-.36C6.56,8.9,6.38,9.38,6.54,9.61Z"/><path class="cls-1" d="M1.4,6.16c-.11.39-.5.31-.78.41S.19,6.65.21,6.4C.25,6,.69,6.08,1,6A.3.3,0,0,1,1.4,6.16Z"/><path class="cls-1" d="M3,8.4c.24,0,.32.15.26.28-.14.31-.19.72-.6.82a.19.19,0,0,1-.22-.26A1.55,1.55,0,0,1,3,8.4Z"/><path class="cls-1" d="M4.23,9.24c-.14.22,0,.66-.4.74s-.28-.21-.22-.37,0-.71.4-.79C4.24,8.76,4.25,9,4.23,9.24Z"/></svg>