<svg id="Layer_1" data-name="Layer 1" xmlns="http://www.w3.org/2000/svg" viewBox="0 0 23.85 25.71"><defs><style>.cls-1{opacity:0.5;}.cls-2{fill:#01003a;}</style></defs><title>lock_icon</title><g class="cls-1"><path class="cls-2" d="M6.33,10a5.74,5.74,0,0,0,1.85,0c.41-.1.19-.65.21-1,.13-1.92.83-3,2.48-3.21,2.9-.43,4.6.35,4.84,3,.13,1.35.13,1.35,1.52,1.31h.28c.31,0,.43-.13.44-.45,0-2.42-.75-5-3.72-5.86-.3-.09-.7.1-.91-.28h-2.8c-.06.06-.11.16-.19.17C7.66,4.18,6.1,6.34,6.2,9.44,6.21,9.65,6.11,10,6.33,10Z"/><path class="cls-2" d="M20.13,13.25a2.21,2.21,0,0,0-2.36-2.43q-5.73-.06-11.45,0A2.2,2.2,0,0,0,4,13.27c0,2.26,0,4.53,0,6.79a2.21,2.21,0,0,0,2.53,2.5c1.83,0,3.66,0,5.5,0s3.72,0,5.58,0c1.66,0,2.51-.8,2.53-2.42Q20.18,16.69,20.13,13.25ZM7.6,18.17a1.47,1.47,0,1,1,1.49-1.44A1.44,1.44,0,0,1,7.6,18.17Zm4.35,0a1.52,1.52,0,0,1-1.36-1.6,1.5,1.5,0,0,1,1.61-1.33,1.47,1.47,0,0,1,1.31,1.54A1.5,1.5,0,0,1,12,18.18Zm4.48,0a1.47,1.47,0,1,1,.1-2.94,1.47,1.47,0,0,1-.1,2.94Z"/></g></svg>