<svg id="Layer_1" data-name="Layer 1" xmlns="http://www.w3.org/2000/svg" viewBox="0 0 115.39 56.53"><defs><style>.cls-1{fill:#01003a;}.cls-2{fill:#03022d;}.cls-3{fill:#43b3ff;}.cls-4{fill:#02013a;}</style></defs><title>Logo_Emit</title><path class="cls-1" d="M35.22,42.28c-1.37.86-2.69,1.79-4.12,2.55a11.79,11.79,0,0,1-7.68,1,9.65,9.65,0,0,1-6.89-7.57,16.85,16.85,0,0,1,.24-7.57,21.7,21.7,0,0,1,5.65-10,1,1,0,0,1,.82-.31,22.66,22.66,0,0,1,2.6.4c.42.07.81.18.81.73-.5,1.29-1.29,2.45-1.69,3.8a30.32,30.32,0,0,0-.82,4.91c-.07.53.17.79.72.59,2.71-1,5.16-2.3,6.46-5.08a7.48,7.48,0,0,0,.32-5.65c.35-.91,3.3-2.83,4.26-2.76,3.28,1.83,3.89,6.43.82,9.84a18.61,18.61,0,0,1-6.08,4.18l-1.54.74a5.22,5.22,0,0,1-3.24,1.2c-1.87.41-1.84.41-1.25,2.22,1.73,5.32,6.62,5.67,9.88,4a34.75,34.75,0,0,0,6.12-4.33.27.27,0,0,1,.44,0,1.87,1.87,0,0,1-.28,2.18c-1.79,1.69-3.65,3.3-5.55,4.86l.06,0Z"/><path class="cls-2" d="M13.42,19.06c0,2.88,0,5.77,0,8.66,0,1.37,0,1.37-1.43,1.3a4.06,4.06,0,0,1-.11-1.7c0-2.47,0-4.94,0-7.41C11.88,18.58,12.19,18.41,13.42,19.06Z"/><path class="cls-3" d="M12.57,32.94c-1.61,0-1.61,0-1.2-1.61a10.86,10.86,0,0,0,.31-1.28c.08-.63.38-.82,1-.82a.85.85,0,0,1,1,.88,8,8,0,0,0,.38,1.68c.35.9.11,1.28-.87,1.15C13,32.92,12.78,32.94,12.57,32.94Z"/><path class="cls-3" d="M87.19,20.09c6.4,0,12.79,0,19.19,0,.63,0,.83.23.81.84,0,1.49,0,3,0,4.49,0,.71-.28.85-.91.83-1.36,0-2.72,0-4.08,0s-1.35,0-1.35,1.39c0,5.72,0,11.43,0,17.15,0,1-.22,1.38-1.29,1.31-1.49-.1-3,0-4.49,0s-1.4,0-1.4-1.35c0-5.75,0-11.5,0-17.25,0-1-.24-1.29-1.24-1.25-1.76.08-3.53,0-5.3,0a.55.55,0,0,1-.23-.32,25.55,25.55,0,0,1,0-5.46A.77.77,0,0,1,87.19,20.09Z"/><path class="cls-4" d="M87.19,20.09V26.2h0a48.54,48.54,0,0,1-7.53-.06c0-1.8,0-3.6,0-5.39,0-.49.06-.74.65-.73C82.58,20.08,84.89,20.08,87.19,20.09Z"/><path class="cls-3" d="M87.18,26.21h-.45a3,3,0,0,0-.87-.08c-1.63,0-3.27,0-4.9,0a2,2,0,0,0-.45.05h-.86c0,.72,0,1.43,0,2.14V45c0,.57-.07,1.16.81,1H86c1,.22,1.26-.19,1.25-1.18C87.16,38.63,87.18,32.42,87.18,26.21Z"/><path class="cls-3" d="M76.25,20.27q-4.29,0-8.58,0a1,1,0,0,0-1,.61c-.69,1.37-1.41,2.72-2.11,4.07q-2.52,4.83-5,9.65c-.11.21-.17.5-.46.49s-.32-.31-.43-.5c-.49-.9-1-1.8-1.45-2.7-1.91-3.6-3.81-7.19-5.71-10.8a1.33,1.33,0,0,0-1.35-.83c-2.28,0-4.56,0-6.84,0l-.92,0c-1.33,0-1.33,0-1.33,1.3q0,6.18,0,12.34c0,.49,0,8.84,0,10.93,0,1,.26,1.39,1.25,1.17h5.11c.8.16,1.05-.16,1-1,0-4.57,0-9.14,0-13.71.32-.58.38.08.41.13.61,1.14,1.2,2.28,1.78,3.43q2.64,5.26,5.27,10.54a.93.93,0,0,0,.95.61c1.56,0,3.13,0,4.69,0a.81.81,0,0,0,.87-.5c1.58-3.27,3.2-6.52,4.81-9.78.81-1.64,1.64-3.29,2.45-4.93a.87.87,0,0,1,.23.63c0,4.5,0,9,0,13.48,0,.81.17,1.15,1.06,1.12,1.73-.07,3.47-.06,5.21,0,.83,0,1.07-.32,1.07-1.07q0-11.91,0-23.8C77.14,20.52,76.91,20.26,76.25,20.27Z"/><path class="cls-3" d="M28.53,22,12.1,19.56a.81.81,0,0,1-.32-1.48l12.31-7.77a5.6,5.6,0,0,1,3-.87H46.32a.5.5,0,0,1,.28.92L30.4,21.53A2.62,2.62,0,0,1,28.53,22Z"/></svg>