<svg id="Calque_1" data-name="Calque 1" xmlns="http://www.w3.org/2000/svg" viewBox="0 0 24 23"><defs><style>.cls-1{opacity:0.5;}.cls-2{fill:#01003a;}</style></defs><title>LogOut_Icon</title><g id="sidebar"><g id="LogOut_btn"><g class="cls-1"><path class="cls-2" d="M17.37,7.23a4,4,0,0,1-3-.65A5.71,5.71,0,0,0,6.78,7.64a5.86,5.86,0,0,0,0,7.69,5.68,5.68,0,0,0,7.57,1.07,3.76,3.76,0,0,1,2.91-.66c-1.21,2.51-4.76,3.62-7,3.26a7.66,7.66,0,0,1-6.57-6.89A7.58,7.58,0,0,1,8.84,4.33,7.33,7.33,0,0,1,17.37,7.23Z"/><path class="cls-2" d="M16.36,14.78c-.21-.89.29-1.95-.25-2.32s-1.55-.12-2.35-.13c-1.19,0-2.38-.05-3.57,0-.76,0-.65-.41-.64-.86s-.15-.89.63-.86c1.71.06,3.43,0,5.14,0,.78,0,1.09-.16,1-1a11.54,11.54,0,0,1,0-1.58l3.84,3.08c.47.37.05.52-.16.69C18.8,12.84,17.62,13.77,16.36,14.78Z"/></g></g></g></svg>