<svg id="Layer_1" data-name="Layer 1" xmlns="http://www.w3.org/2000/svg" viewBox="0 0 26.36 25.07"><defs><style>.cls-1{opacity:0.5;}.cls-2{fill:#03023b;}.cls-3{fill:#03033c;}.cls-4{fill:#15154a;}.cls-5{fill:#0e0d44;}.cls-6{fill:#141349;}</style></defs><title>matricule_icon</title><g class="cls-1"><path class="cls-2" d="M24.4,8.51c0-1.47-.68-2.14-2.16-2.15q-8.58,0-17.15,0C3.63,6.37,3,7.07,3,8.56,3,12,3,15.52,3,19c0,1.62.64,2.24,2.29,2.25H22.17c1.58,0,2.22-.63,2.23-2.18C24.41,15.56,24.41,12,24.4,8.51ZM23.47,18.8c0,1.41-.12,1.52-1.58,1.52H13.55c-2.75,0-5.49,0-8.23,0-1.08,0-1.45-.4-1.44-1.46,0-3.37.05-6.74,0-10.11,0-1.15.44-1.49,1.54-1.49q8.28.06,16.57,0c1.14,0,1.51.43,1.5,1.53C23.44,12.14,23.47,15.47,23.47,18.8Z"/><path class="cls-3" d="M11.85,15.68c-.49-.22-.88-.51-.42-1a4.93,4.93,0,0,0,.82-3.2A2.1,2.1,0,0,0,10.17,9.2a2,2,0,0,0-2.43,1.64c-.11,1.18-.31,2.43.54,3.47.68.83.29,1.21-.54,1.51A2.76,2.76,0,0,0,6,17.23c-.39.88-.2,1.21.77,1.23s2.11,0,3.17,0h3.17c1.13,0,1.37-.45.79-1.43A3.69,3.69,0,0,0,11.85,15.68Zm-5,1.79a4.12,4.12,0,0,1,1.6-.95C9.7,15.93,10,15.1,9.19,14a4.46,4.46,0,0,1-.53-3,1,1,0,0,1,1.26-.9c.59.14,1.43.28,1.38,1.11a4.68,4.68,0,0,1-.66,2.87,1.41,1.41,0,0,0,.59,2.3c.48.26,1,.48,1.47.72.05,0,.08.12.23.33Z"/><path class="cls-4" d="M20.87,15.68H15.82c-.32,0-.69,0-.69.45s.42.49.77.49h4.93c.35,0,.78,0,.75-.51S21.18,15.68,20.87,15.68Z"/><path class="cls-5" d="M15.81,12H21c.35,0,.63-.12.61-.54s-.33-.4-.6-.4H15.81c-.31,0-.66,0-.66.45S15.48,12,15.81,12Z"/><path class="cls-6" d="M15.71,14.29q2.64,0,5.28,0c.27,0,.56-.06.58-.43s-.31-.49-.62-.5H15.79c-.32,0-.65,0-.65.48S15.44,14.28,15.71,14.29Z"/></g></svg>