<svg id="Calque_1" data-name="Calque 1" xmlns="http://www.w3.org/2000/svg" viewBox="0 0 24 23"><defs><style>.cls-1{fill:#01003a;}.cls-2{fill:#f6f6f8;}.cls-3{fill:#fafafb;}</style></defs><title>Message_Icon</title><path class="cls-1" d="M21.9,4.91c0-1.68-.77-2.44-2.46-2.45-2.46,0-4.92,0-7.38,0H4.79c-2,0-2.7.71-2.7,2.66v9.22c0,2.05.68,2.73,2.73,2.73,1.28,0,1.59.54,1,1.71a3.35,3.35,0,0,1-.69.82c-.21.2-.5.35-.34.7s.5.24.77.22a4.92,4.92,0,0,0,4.26-2.74A1.17,1.17,0,0,1,11,17.06c2.82,0,5.64,0,8.47,0a2.11,2.11,0,0,0,2.4-2.39C21.92,11.43,21.91,8.17,21.9,4.91ZM7.75,10.61a.77.77,0,0,1-.89-.83A.76.76,0,0,1,7.74,9c.52,0,.73.36.82.8C8.49,10.25,8.24,10.6,7.75,10.61Zm4.35,0a.76.76,0,0,1-.92-.81A.76.76,0,0,1,11.85,9c.64,0,1,.28,1,.76A.76.76,0,0,1,12.1,10.6Zm4.24,0a.78.78,0,0,1-.86-.89.84.84,0,0,1,1.67,0A.79.79,0,0,1,16.34,10.61Z"/><path class="cls-2" d="M7.74,9a.76.76,0,0,0-.88.83.77.77,0,0,0,.89.83c.49,0,.74-.36.81-.86C8.47,9.31,8.26,9,7.74,9Z"/><path class="cls-3" d="M11.85,9a.76.76,0,0,0-.67.84.76.76,0,0,0,.92.81.76.76,0,0,0,.74-.89C12.8,9.23,12.49,8.93,11.85,9Z"/><path class="cls-3" d="M16.34,9a.76.76,0,0,0-.86.77.78.78,0,0,0,.86.89.79.79,0,0,0,.81-.88A.76.76,0,0,0,16.34,9Z"/></svg>