<svg id="Layer_1" data-name="Layer 1" xmlns="http://www.w3.org/2000/svg" viewBox="0 0 39.21 33.7"><defs><style>.cls-1{fill:#01003a;}</style></defs><title>Moon_Icon</title><path class="cls-1" d="M32.53,19c-3,1.06-5.82,1.16-7.94-1.62s-1.23-5.32.58-8c-8-.47-13.32,3.69-13.32,10.33A10.46,10.46,0,0,0,22.92,30.12C28.57,29.81,33.18,24.57,32.53,19ZM21.46,27.79a8.15,8.15,0,0,1-7.3-8.11,8,8,0,0,1,7.08-7.88c-.38,6.65,2.31,9.87,8.61,10.3C29.08,25.62,25.3,28.18,21.46,27.79Z"/><path class="cls-1" d="M14.24,9a3.56,3.56,0,0,1,3.15-3.14,3.78,3.78,0,0,1-3.26-3.18c-.29,1.91-1.47,2.77-3.36,3.09C13.2,6.89,13.2,6.89,14.24,9Z"/><path class="cls-1" d="M8.34,9.61c-.18,2-1.59,2.66-3.18,3.26,2,.18,2.74,1.46,3.28,3.12.25-1.93,1.44-2.78,3.16-3.23A3.74,3.74,0,0,1,8.34,9.61Z"/></svg>