<svg id="Calque_1" data-name="Calque 1" xmlns="http://www.w3.org/2000/svg" viewBox="0 0 24 24"><defs><style>.cls-1{fill:#01003a;}.cls-2{fill:#05043d;}</style></defs><title>Notification_Icon</title><path class="cls-1" d="M12.07,18.33c-2.45,0-4.9,0-7.36,0-.28,0-.74.25-.85-.24A1.1,1.1,0,0,1,4,17c.06-.05.09-.12.15-.17,1.47-1.11,1.61-2.66,1.48-4.33a9.87,9.87,0,0,1,.06-2.37,6.13,6.13,0,0,1,4.18-5c.44-.16.76-.26.76-.88A1.24,1.24,0,0,1,12,2.94a1.24,1.24,0,0,1,1.35,1.24.88.88,0,0,0,.72.91,6.22,6.22,0,0,1,4.3,6.13,13.78,13.78,0,0,1,0,1.7,3.86,3.86,0,0,0,1.37,3.8,1.18,1.18,0,0,1,.4,1.42c-.19.43-.74.18-1.12.18C16.68,18.34,14.37,18.33,12.07,18.33Z"/><path class="cls-2" d="M12.26,21.06a2,2,0,0,1-1.35-.39c-.4-.31-.79-.75-.67-1.21s.71-.17,1.08-.21a6.39,6.39,0,0,1,1.45,0c.34,0,.84-.26,1,.2s-.2.77-.5,1.07A1.77,1.77,0,0,1,12.26,21.06Z"/></svg>