<svg id="Layer_1" data-name="Layer 1" xmlns="http://www.w3.org/2000/svg" viewBox="0 0 26.36 26.68"><defs><style>.cls-1{fill:#fe9800;}.cls-2{fill:#b1bec4;}.cls-3{fill:#e47575;}.cls-4{fill:#fdc10f;}.cls-5{fill:#4f5954;}</style></defs><title>pencil_icon</title><path class="cls-1" d="M18.08,10.31c-1.71,1.74-3.41,3.49-5.13,5.22-1.23,1.23-2.47,2.44-3.71,3.66a2.44,2.44,0,0,1-1.95-2c2.91-3,5.84-6,8.88-8.85A4.45,4.45,0,0,1,18.08,10.31Z"/><path class="cls-2" d="M18.08,10.31,16.17,8.38a4.18,4.18,0,0,1,1-1.09,5.11,5.11,0,0,1,2,2A4,4,0,0,1,18.08,10.31Z"/><path class="cls-3" d="M19.19,9.26a16.66,16.66,0,0,1-2-2c.83-1,.89-1,1.84,0C20.16,8.38,20.16,8.39,19.19,9.26Z"/><path class="cls-4" d="M7.29,17.23a4.67,4.67,0,0,0,2,2c-.43.45-1,.35-1.55.53a1.34,1.34,0,0,1-.94-.92C6.89,18.26,6.86,17.67,7.29,17.23Z"/><path class="cls-5" d="M6.75,18.8a3,3,0,0,1,.94.92l-1.23.39A2.84,2.84,0,0,1,6.75,18.8Z"/></svg>