<svg id="Layer_1" data-name="Layer 1" xmlns="http://www.w3.org/2000/svg" viewBox="0 0 26.36 25.07"><defs><style>.cls-1{opacity:0.5;}.cls-2{fill:#01003a;}</style></defs><title>phone_icon</title><g class="cls-1"><path class="cls-2" d="M22.16,19.14c0,3-.5,3.47-3.4,3.11C11.78,21.4,5,14.43,4.24,7.46,4.09,6,4.17,4.81,6,4.5c2.79-.46,4.08.07,4.59,2,.45,1.77,1.22,3.57-.68,5.05-.5.39-.32.93,0,1.39a14.44,14.44,0,0,0,4,3.83,1.26,1.26,0,0,0,1.78-.24c1.86-2,3.87-.67,5.71-.09C22.54,16.85,22.05,18.26,22.16,19.14Z"/></g></svg>