<svg id="Layer_1" data-name="Layer 1" xmlns="http://www.w3.org/2000/svg" viewBox="0 0 26.36 26.35"><defs><style>.cls-1{opacity:0.5;}.cls-2{fill:#01003a;}</style></defs><title>Plan de travail 27</title><g class="cls-1"><path class="cls-2" d="M11.2,2.6c-3,.59-4.78,3-4.67,6.53,0,.23-.1.63.15.66a6.31,6.31,0,0,0,2.08,0C9.23,9.66,9,9,9,8.65c.14-2.17.94-3.34,2.8-3.62,3.28-.49,5.2.39,5.47,3.34.14,1.52.14,1.52,1.72,1.47h.31c.36,0,.49-.14.49-.5,0-2.73-.84-5.64-4.19-6.62-.34-.1-.79.11-1-.31H11.41C11.34,2.47,11.28,2.58,11.2,2.6Z"/><path class="cls-2" d="M19.6,10.69q-6.48-.07-12.94,0A2.47,2.47,0,0,0,4,13.45C4,16,4,18.56,4,21.12,4,23,5,23.93,6.89,23.94H19.41c1.87,0,2.82-.9,2.85-2.74q0-3.89,0-7.78A2.48,2.48,0,0,0,19.6,10.69ZM8.17,19A1.64,1.64,0,0,1,6.54,17.3a1.62,1.62,0,0,1,1.68-1.62A1.66,1.66,0,0,1,8.17,19Zm4.88,0a1.66,1.66,0,0,1,.13-3.32A1.66,1.66,0,1,1,13.05,19Zm5,0a1.66,1.66,0,0,1,0-3.32,1.66,1.66,0,1,1,0,3.32Z"/></g></svg>