<svg id="Calque_1" data-name="Calque 1" xmlns="http://www.w3.org/2000/svg" viewBox="0 0 24 23"><defs><style>.cls-1{fill:#27aa07;}.cls-2{fill:#fff;}</style></defs><title>SendObject_Icon</title><path class="cls-1" d="M21.48,11.56A9.48,9.48,0,1,1,12,2,9.53,9.53,0,0,1,21.48,11.56Z"/><path class="cls-2" d="M12.47,7.88c0,2.63,0,5,0,7.34,0,.35.31,1-.42,1s-.49-.67-.5-1c0-2.33,0-4.66,0-7.26-1.06,1.05-2,1.95-2.88,2.83-.24.23-.43.76-.92.25s.06-.69.29-.92c1.1-1.14,2.24-2.23,3.34-3.37.43-.44.72-.6,1.23-.06C13.72,7.86,14.93,9,16.1,10.18c.25.24.57.45.15.85s-.62,0-.84-.22C14.49,9.91,13.58,9,12.47,7.88Z"/></svg>