<svg id="Calque_1" data-name="Calque 1" xmlns="http://www.w3.org/2000/svg" viewBox="0 0 24 26"><defs><style>.cls-1{fill:#43b3ff;}.cls-2{fill:#01003a;}</style></defs><title>Settings_Icon</title><path class="cls-1" d="M3.5,8.54c.33.24.68.46,1,.7a1.46,1.46,0,0,1,0,2.58c-1.87,1.42-1.87,1.42-.65,3.48l.7,1.19c.16.27.34.51.71.5a.77.77,0,0,0,.15,0c.56-.24,1.11-.52,1.68-.73a1.63,1.63,0,0,1,2.28,1.28c.49,2.26.49,2.26,2.78,2.26.36,0,.72,0,1.07,0,.85.08,1.13-.29,1.22-1.13.25-2.68.94-3.11,3.27-2,1,.46,1.5.32,1.92-.63a5,5,0,0,1,.7-1.18c1-1.23.76-2-.6-2.84-1.56-.92-1.54-2,0-3,1.31-.76,1.64-1.52.59-2.71A2.12,2.12,0,0,1,20,5.69c-.57-1.55-1.46-1.77-2.9-1s-2.55.1-2.54-1.42c0-1.77-.78-2.21-2.33-2a4.16,4.16,0,0,1-1.22,0c-1.13-.16-1.59.31-1.54,1.44C9.56,4.07,9,5,7.63,5a4,4,0,0,1-1.69-.67c-.6-.31-1.1-.34-1.37.36C4.1,5.89,2.74,6.68,3,8.17,3.06,8.32,3.33,8.43,3.5,8.54Zm8.36-1a3.1,3.1,0,0,1,3.21,3,3.07,3.07,0,1,1-6.14.12A3.11,3.11,0,0,1,11.86,7.5Z"/><path class="cls-2" d="M22,22.21c-3.26.07-6.53,0-9.8,0s-6.75,0-10.12,0c-1,0-1.12.41-1.12,1.25S1,24.73,2,24.72q10-.07,19.92,0c1.05,0,1.12-.42,1.12-1.25S23,22.18,22,22.21Z"/></svg>