<svg id="Calque_1" data-name="Calque 1" xmlns="http://www.w3.org/2000/svg" viewBox="0 0 45 44"><defs><style>.cls-1{fill:#009eff;}</style></defs><title>Shorcut_Icon</title><g id="float_button"><path class="cls-1" d="M22.6,2.54A19.39,19.39,0,1,0,42,22,19.38,19.38,0,0,0,22.6,2.54Zm9.65,21.64c0,.86-.79.6-1.31.65-1.74.16-4-.74-5.1.4s-.3,3.22-.29,4.9c0,1.14-.36,1.48-1.51,1.53-4.34.18-4.49.23-4.28-4,.11-2.33-.53-3.29-2.88-2.83a.65.65,0,0,1-.24,0c-1.18-.12-2.85.58-3.44-.33-.83-1.31-.26-3.12-.26-4.72,0-1,.86-.73,1.45-.76,1.67-.08,3.83.49,4.9-.35s.43-3.17.37-4.83c-.11-2.61,1.83-1.23,2.72-1.54,3.1-.94,3.39.79,3.14,3a1.92,1.92,0,0,0,0,.24c0,3.43,0,3.39,3.41,3.46,1.09,0,2.8-.59,3.14.37C32.59,20.84,32.3,22.58,32.25,24.18Z"/></g></svg>