<svg id="Layer_1" data-name="Layer 1" xmlns="http://www.w3.org/2000/svg" viewBox="0 0 28.77 31.43"><defs><style>.cls-1{fill:#90a4ae;}.cls-2{fill:#cfd8dc;}.cls-3{fill:#fefefe;}.cls-4{fill:#00abc0;}.cls-5{fill:#3939a8;}</style></defs><title>show_icon</title><path class="cls-1" d="M4.08,15.41l-1-.07a12,12,0,0,1,19.16-4.19,24.85,24.85,0,0,1,3.11,3.29c.69.88.34,1-.51,1a1.58,1.58,0,0,1-1.16.23c-1-.44-1.48-1.35-2.21-2a13.7,13.7,0,0,0-3.93-2.7c-3.75-1.64-6.79-.22-9.59,2.22a17.94,17.94,0,0,1-2.69,2.46A1.42,1.42,0,0,1,4.08,15.41Z"/><path class="cls-2" d="M23.53,15.41h1.3a19.19,19.19,0,0,1-5.61,5.16c-3.41,2.1-7.46,1.78-10.93-.86a19,19,0,0,1-4.21-4.29l1.27,0c.59.11.89.6,1.29,1a27.21,27.21,0,0,0,2.47,2.33c4.05,2.9,8.14,2.47,12.06-1.23A8.09,8.09,0,0,1,23.53,15.41Z"/><path class="cls-3" d="M23.53,15.41a17.23,17.23,0,0,1-5.76,4.76c-3.5,1.63-6.56.52-9.35-1.65a16.92,16.92,0,0,1-3.07-3.14,16,16,0,0,1,6-4.85c3.78-1.6,6.85-.12,9.67,2.25A33,33,0,0,1,23.53,15.41Z"/><path class="cls-4" d="M9.9,15.31a4.5,4.5,0,0,1,4.63-4.47,4.55,4.55,0,0,1-.15,9.09A4.53,4.53,0,0,1,9.9,15.31Z"/><path class="cls-5" d="M16.45,15.41a2,2,0,1,1-1.95-2.05A2,2,0,0,1,16.45,15.41Z"/></svg>