<svg id="Layer_1" data-name="Layer 1" xmlns="http://www.w3.org/2000/svg" viewBox="0 0 39.21 33.7"><defs><style>.cls-1{fill:#fe9a07;}.cls-2{fill:#fee93a;}</style></defs><title>Sun_Icon</title><path class="cls-1" d="M19.6,29.4a4.9,4.9,0,0,1-.89-.86,4.84,4.84,0,0,0-5.24-2.36c-1.9.47-2.5-.23-2.21-1.82,0-.06,0-.11,0-.16A4.94,4.94,0,0,0,9.09,19c-.95-.67-1.13-1.37,0-2.06,2.27-1.45,2.45-3.66,2.2-6-.11-1,.23-1.51,1.3-1.32.16,0,.32,0,.48,0a5.28,5.28,0,0,0,5.66-2.31c.63-.89,1.25-.83,1.85,0a5.28,5.28,0,0,0,5.67,2.29c1.32-.23,2.06.17,1.75,1.67,0,.1,0,.21,0,.31a5,5,0,0,0,2.23,5.37c.91.64,1,1.31,0,1.95-2.24,1.45-2.57,3.61-2.26,6,.15,1.12-.25,1.59-1.39,1.4-.15,0-.32,0-.48,0a5.24,5.24,0,0,0-5.53,2.25A6.49,6.49,0,0,1,19.6,29.4Zm2.54-18.07a7,7,0,1,0,4,3.84A7.07,7.07,0,0,0,22.14,11.33Z"/><path class="cls-2" d="M17,11.35a7.05,7.05,0,1,1-3.92,3.89A7,7,0,0,1,17,11.35Z"/></svg>