<svg id="Layer_1" data-name="Layer 1" xmlns="http://www.w3.org/2000/svg" viewBox="0 0 23.85 25.71"><defs><style>.cls-1{opacity:0.5;}.cls-2{fill:#01003a;}</style></defs><title>user_icon</title><g class="cls-1"><path class="cls-2" d="M12.35,21.54c-2.48,0-5,0-7.43,0-.58,0-1.46.36-1.68-.29a2.77,2.77,0,0,1,.2-2.48,8.49,8.49,0,0,1,2.8-2.6c4.19-2.5,10.77-1.82,14,1.45a5.92,5.92,0,0,1,1.05,1.34c.83,1.55.21,2.6-1.49,2.6Z"/><path class="cls-2" d="M12.19,12.36A4.66,4.66,0,0,1,7.73,7.71a4.59,4.59,0,1,1,9.17.11A4.63,4.63,0,0,1,12.19,12.36Z"/></g></svg>